[img]http://i.imgur.com/AKOaP.jpg[/img]
[code]

Good.Will.Hunting.1997.720p.BDRip.XViD.AC3-26k
 
http://www.imdb.com/title/tt0119217/

Plot:

Will Hunting, a janitor at MIT, has a gift for mathematics but needs help from a psychologist to find direction in his 

life.

Sources - VIDEO: Good Will Hunting 1997 GER Blu-ray 1080p AVC DTS-HD MA 5.1 ..... thanks .... :P
          AUDIO: Good Will Hunting 1997 GER Blu-ray 1080p AVC DTS-HD MA 5.1 ..... thanks .... :P

Format                                   : AVI
Format/Info                              : Audio Video Interleave
Format profile                           : OpenDML
File size                                : 2.78 GiB
Duration                                 : 2h 6mn
Overall bit rate                         : 3 149 Kbps
Writing library                          : VirtualDub build 32839/release

Video
ID                                       : 0
Format                                   : MPEG-4 Visual
Format profile                           : Advanced Simple@L5
Format settings, BVOP                    : 2
Format settings, QPel                    : No
Format settings, GMC                     : No warppoints
Format settings, Matrix                  : Default (H.263)
Codec ID                                 : XVID
Codec ID/Hint                            : XviD
Duration                                 : 2h 6mn
Bit rate                                 : 2 498 Kbps
Width                                    : 1 280 pixels
Height                                   : 688 pixels
Display aspect ratio                     : 1.85:1
Frame rate                               : 23.976 fps
Color space                              : YUV
Chroma subsampling                       : 4:2:0
Bit depth                                : 8 bits
Scan type                                : Progressive
Compression mode                         : Lossy
Bits/(Pixel*Frame)                       : 0.118
Stream size                              : 2.21 GiB (79%)
Writing library                          : XviD 1.2.1 (UTC 2008-12-04)

Audio
ID                                       : 1
Format                                   : AC-3
Format/Info                              : Audio Coding 3
Mode extension                           : CM (complete main)
Format settings, Endianness              : Big
Codec ID                                 : 2000
Duration                                 : 2h 6mn
Bit rate mode                            : Constant
Bit rate                                 : 640 Kbps
Channel(s)                               : 6 channels
Channel positions                        : Front: L C R, Side: L R, LFE
Sampling rate                            : 48.0 KHz
Bit depth                                : 16 bits
Compression mode                         : Lossy
Stream size                              : 579 MiB (20%)
Alignment                                : Split accross interleaves
Interleave, duration                     : 42 ms (1.00 video frame)
Interleave, preload duration             : 500 ms

Notes -

Took the BD made a script to make magic happen and this is the outcome.. enjoy
[/code]

Screens:
[img]http://i.imgur.com/AzkMs.jpg[/img]
[img]http://i.imgur.com/GilJr.jpg[/img]
[img]http://i.imgur.com/TgZ02.jpg[/img]
[img]http://i.imgur.com/rCAyR.jpg[/img]
[img]http://i.imgur.com/MRVGG.jpg[/img]

Greetz:
XtremeEncode|CM8|RX|VISION|HDSCENE|xTriLL|ADTRG|CRYS|REMIXHD|HS|Tommiecook
BIDA|RX|REFILL|INSPiRAL|AXED|HOPE|Anonymous|GooN|NOIR|Blackjesus|Gabroo Punjab Deh
|UNiQUE|RESiSTANCE|HS|LEGION

To all the people who have helped me, you know who you are

Anything to offer email us @: 26k@hushmail.me 